<?xml version="1.0" encoding="UTF-8"?>
<svg xmlns="http://www.w3.org/2000/svg" width="720" height="420" viewBox="0 0 720 420" fill="none">
  <g clip-path="url(#clip0_6900_12660)">
    <rect width="720" height="420" fill="#85DA95"></rect>
    <path d="M654 196C599.876 196 556 239.876 556 294C556 317.129 564.012 338.386 577.412 355.148C577.648 355.442 577.778 355.808 577.778 356.185L577.778 389.026C577.778 390.321 579.202 391.11 580.3 390.424L600.947 377.519C601.483 377.184 602.163 377.186 602.702 377.518C617.623 386.702 635.193 392 654 392C708.124 392 752 348.124 752 294C752 239.876 708.124 196 654 196Z" fill="white"></path>
    <ellipse cx="634.767" cy="293.838" rx="5.1579" ry="5.15789" fill="#2A3647"></ellipse>
    <circle cx="653.681" cy="293.838" r="5.15789" fill="#2A3647"></circle>
    <circle cx="672.588" cy="293.838" r="5.15789" fill="#2A3647"></circle>
    <g clip-path="url(#clip1_6900_12660)">
      <rect width="220" height="220" rx="110" transform="matrix(-1 0 0 1 191 44)" fill="#D7F9D3"></rect>
      <path d="M79.1015 66C95.5947 66 106.593 68.4954 114.839 78.4769C130.138 78.2541 135.016 97.8607 135.016 110.115V158.754C135.016 183.327 115.095 203.246 90.5213 203.246H-8.87131C-8.87131 203.246 -6.12212 180.788 10.3728 165.815C26.8677 150.843 32.3643 143.357 32.3643 113.412C32.3643 75.9815 62.6082 66 79.1015 66Z" fill="#76411C"></path>
      <path d="M178.858 352.563L-81.8047 352.561L-30.9966 229.422C-20.6719 204.212 3.82751 187.75 31.021 187.75L108.45 187.75C147.572 187.75 179.286 219.465 179.286 258.587L178.858 352.563Z" fill="#1F9A4A"></path>
      <path d="M124.101 123.096L120.49 96.7266L101.686 109.58C93.8491 114.938 84.2656 116.837 75.1168 114.998C73.6743 114.123 71.9842 113.619 70.1773 113.619C64.8844 113.619 60.5938 117.941 60.5938 123.273C60.5938 128.605 64.8843 132.927 70.177 132.927V188.441C70.177 196.439 76.6131 202.922 84.5523 202.922C92.4915 202.922 98.9276 196.439 98.9276 188.441V166.718H100.084C115.939 166.718 128.141 152.604 125.974 136.773L125.683 134.65L128.741 134.17C130.397 133.91 131.154 131.942 130.104 130.626L124.101 123.096Z" fill="#D69763"></path>
      <path d="M70.249 118.447C67.583 118.447 65.4219 120.609 65.4219 123.274C65.4219 125.94 67.583 128.102 70.249 128.102" stroke="#AD7C4E" stroke-width="1.2128" stroke-linecap="round"></path>
      <circle cx="2.41354" cy="2.41354" r="2.41354" transform="matrix(-1 0 0 1 116.102 113.621)" fill="#030A0F"></circle>
      <path d="M70.2656 132.93H43.7019V225.5C58.3727 225.5 70.2656 213.607 70.2656 198.936V132.93Z" fill="#76411C"></path>
      <circle cx="69.9953" cy="134.198" r="2.75" fill="white" stroke="white" stroke-width="1.1"></circle>
    </g>
  </g>
  <defs>
    <clipPath id="clip0_6900_12660">
      <rect width="720" height="420" fill="white"></rect>
    </clipPath>
    <clipPath id="clip1_6900_12660">
      <rect width="220" height="220" rx="110" transform="matrix(-1 0 0 1 191 44)" fill="white"></rect>
    </clipPath>
  </defs>
</svg>
